<?xml version="1.0" encoding="UTF-8" standalone="no"?>
<svg
   xmlns:dc="http://purl.org/dc/elements/1.1/"
   xmlns:cc="http://creativecommons.org/ns#"
   xmlns:rdf="http://www.w3.org/1999/02/22-rdf-syntax-ns#"
   xmlns:svg="http://www.w3.org/2000/svg"
   xmlns="http://www.w3.org/2000/svg"
   xmlns:sodipodi="http://sodipodi.sourceforge.net/DTD/sodipodi-0.dtd"
   xmlns:inkscape="http://www.inkscape.org/namespaces/inkscape"
   version="1.1"
   id="svg2"
   height="102.28168"
   width="349.42831"
   inkscape:version="0.91 r13725"
   sodipodi:docname="logo (1).svg"
   inkscape:export-filename="C:\Users\Michal\Downloads\logo (1).png"
   inkscape:export-xdpi="90"
   inkscape:export-ydpi="90">
  <sodipodi:namedview
     pagecolor="#ffffff"
     bordercolor="#666666"
     borderopacity="1"
     objecttolerance="10"
     gridtolerance="10"
     guidetolerance="10"
     inkscape:pageopacity="0"
     inkscape:pageshadow="2"
     inkscape:window-width="1920"
     inkscape:window-height="1017"
     id="namedview12"
     showgrid="false"
     fit-margin-top="0"
     fit-margin-left="0"
     fit-margin-right="0"
     fit-margin-bottom="0"
     inkscape:zoom="2.1903626"
     inkscape:cx="160.25164"
     inkscape:cy="12.11086"
     inkscape:window-x="-8"
     inkscape:window-y="-8"
     inkscape:window-maximized="1"
     inkscape:current-layer="svg2" />
  <defs
     id="defs4" />
  <metadata
     id="metadata7">
    <rdf:RDF>
      <cc:Work
         rdf:about="">
        <dc:format>image/svg+xml</dc:format>
        <dc:type
           rdf:resource="http://purl.org/dc/dcmitype/StillImage" />
        <dc:title />
      </cc:Work>
    </rdf:RDF>
  </metadata>
  <path
     inkscape:connector-curvature="0"
     id="path4790"
     d="m 183.13759,100.76254 c -7.23816,-3.121397 -9.20327,-9.241921 -4.77484,-14.871755 1.55356,-1.975035 3.34469,-2.027338 8.1083,-0.236778 3.00374,1.129056 4.77794,1.348024 10.82031,1.335454 6.57383,-0.01367 7.74144,-0.192642 12.91079,-1.978878 10.38419,-3.588192 18.19145,-8.594429 19.92325,-12.77535 0.65634,-1.584554 0.6274,-2.179964 -0.18919,-3.892377 -1.38621,-2.906896 -4.66819,-4.585581 -19.54066,-9.994743 -20.09144,-7.307309 -23.86898,-9.54973 -27.07067,-16.069703 -1.47503,-3.00375 -1.69301,-4.145568 -1.69301,-8.868241 0,-4.816607 0.20787,-5.856807 1.86552,-9.335466 6.23539,-13.085264 25.01677,-23.517966 42.25962,-23.47442659 10.0944,0.0254768 18.21294,3.72134559 21.24953,9.67356659 2.54387,4.986379 0.63529,11.806527 -3.8775,13.855939 -1.36011,0.617671 -3.19444,1.128995 -4.07628,1.136271 -1.39297,0.0115 -1.65454,-0.289755 -1.99347,-2.295826 -1.02014,-6.038161 -5.01047,-8.737454 -12.9661,-8.771002 -6.36886,-0.02686 -10.366,0.910708 -16.66883,3.909814 -11.1857,5.322559 -15.16672,13.349048 -9.70579,19.568702 2.54054,2.893513 5.51304,4.280896 18.54487,8.655609 13.61914,4.571873 19.63507,7.580465 24.18461,12.094825 11.05732,10.971823 2.34598,26.38752 -20.62407,36.496613 -5.26231,2.315936 -9.61625,3.618077 -20.88497,6.246102 -3.88151,0.90523 -13.32107,0.66129 -15.80142,-0.40835 z M 99.85816,99.986959 C 95.8526,99.20958 93.40934,95.663476 93.40002,90.61373 c -0.002,-1.001377 0.65806,-4.428047 1.46645,-7.614831 1.78141,-7.022535 3.83317,-19.994984 6.65235,-42.060129 2.46805,-19.316946 2.52997,-21.050741 0.8739,-24.471707 -1.83041,-3.781117 -1.41871,-6.7378875 1.18134,-8.4841918 1.81874,-1.2215487 2.77579,-1.3745239 8.59931,-1.3745239 4.12205,0 12.74648,-0.8218643 23.2496,-2.215565 10.26489,-1.3620926 19.32659,-2.23214 23.52359,-2.2585804 6.7561,-0.042582 6.84187,-0.025537 8.28146,1.6468605 2.88199,3.3480172 1.1992,8.8792326 -3.20088,10.5210816 -0.91767,0.342419 -7.54004,0.92953 -14.71637,1.304695 -15.94037,0.83332 -27.16648,2.390349 -29.8767,4.143803 -0.42043,0.272011 -1.14925,2.779101 -1.6196,5.571321 -0.47035,2.79222 -1.54398,8.324742 -2.38582,12.29449 -1.99434,9.404295 -2.23696,9.131753 7.27482,8.171887 3.9224,-0.395818 11.19707,-1.536883 16.16595,-2.535687 9.7987,-1.969663 14.80182,-2.050936 18.19627,-0.295597 3.07875,1.592076 3.40669,6.713097 0.59399,9.275369 -1.95565,1.781514 -4.35739,2.355778 -16.9834,4.060795 -26.44896,3.571665 -27.13854,3.731446 -28.3118,6.559996 -0.42797,1.031768 -1.40635,6.261472 -2.17417,11.621577 -1.98666,13.868786 -2.60671,13.495952 17.83563,10.724511 6.13947,-0.83235 14.07078,-2.074569 17.62513,-2.760485 7.75958,-1.497445 10.84116,-1.563956 13.31,-0.287268 2.2815,1.179811 3.23816,2.87274 3.31674,5.869382 0.0743,2.834965 -1.23242,4.202755 -5.29496,5.542274 -2.98851,0.985385 -5.8007,1.375789 -22.32945,3.099874 -4.96888,0.518293 -12.15116,1.451942 -15.96064,2.074775 -8.30921,1.358514 -15.73372,1.850904 -18.8346,1.249103 z m 236.09337,-1.20513 c -4.94131,-3.133687 -9.85572,-10.901012 -15.25758,-24.114924 l -2.58526,-6.324025 -2.36098,-0.181416 c -2.92874,-0.225045 -15.33692,2.223913 -25.62057,5.056643 -4.95758,1.365616 -8.74306,2.072509 -10.51493,1.963549 l -2.76859,-0.170254 -4.92614,8.539162 c -2.70938,4.696541 -5.79069,9.63075 -6.84737,10.964915 -1.95159,2.464081 -4.56314,3.641614 -7.03042,3.169962 -1.81232,-0.346448 -5.62073,-3.618932 -6.30447,-5.417304 -0.7658,-2.014226 1.15116,-6.04831 8.79327,-18.504664 12.15819,-19.817405 16.62365,-27.537505 25.43142,-43.967033 11.72845,-21.8776161 13.14035,-24.2522816 16.02505,-26.9523934 2.64704,-2.47766276 3.969,-2.72148103 7.27233,-1.3412655 3.85279,1.6098017 4.57683,2.7813665 4.57683,7.405819 0,3.4501899 0.68459,6.2198479 4.28005,17.3157839 11.91654,36.775562 17.59083,49.257905 27.61429,60.746069 2.51505,2.882563 3.62704,4.651591 3.59663,5.721737 -0.1074,3.779382 -4.45384,7.8731 -8.35916,7.8731 -1.40577,0 -3.21919,-0.644974 -5.0144,-1.783461 z M 301.99711,57.715957 c 5.35095,-1.02825 10.05344,-2.174681 10.44998,-2.547624 0.55486,-0.521853 -0.31093,-3.91524 -3.75774,-14.728173 -4.74466,-14.88437 -4.84916,-15.160881 -5.72989,-15.160881 -0.59732,0 -17.43289,33.230193 -17.43289,34.409196 0,0.904071 3.98369,0.42698 16.47054,-1.972518 z M 40.094166,96.43326 c -4.618398,-2.852761 -5.275113,-5.385648 -5.253077,-20.260635 0.01739,-11.739366 0.854844,-22.300067 3.43894,-43.366702 0.907456,-7.397971 1.259538,-12.237031 0.915386,-12.581184 -0.344153,-0.344154 -5.922349,-0.151151 -14.50288,0.501784 C 7.692538,22.020141 4.77406,21.778919 2.013612,18.851992 0.859079,17.627829 0.042006,16.131378 0.042006,15.241045 c 0,-2.330319 2.173292,-4.910521 4.698022,-5.5776454 C 5.965588,9.3395614 14.150605,8.789582 22.928954,8.4412185 37.638843,7.8574688 43.415244,7.2905109 63.583402,4.4509453 67.558504,3.891269 74.740789,3.4023978 79.544037,3.3645621 89.5888,3.2854274 92.98737,4.1309556 94.77269,7.1532735 c 1.34362,2.2745592 1.33239,6.1795125 -0.0226,7.8528255 -1.199,1.480707 -0.31825,1.418069 -17.314076,1.231342 -12.820768,-0.140857 -20.574742,0.6671 -22.667814,2.361963 -0.936032,0.757955 -1.378992,2.353417 -2.023502,7.288282 -3.310705,25.349302 -4.672897,49.545088 -3.320512,58.980227 0.70023,4.885273 0.673817,5.713925 -0.26008,8.1593 -0.571705,1.496987 -1.619239,3.127887 -2.327854,3.624214 -1.746063,1.222994 -4.556189,1.132061 -6.742101,-0.218167 z"
     style="fill:#dd6b68" />
  <path
     inkscape:connector-curvature="0"
     id="path4788"
     d="m 185.2456,101.16758 c 0.20473,-0.33126 -0.0611,-0.60229 -0.59073,-0.60229 -1.60582,0 -5.54086,-2.275651 -6.88094,-3.979289 -2.2966,-2.919658 -1.21622,-9.293619 1.92402,-11.351186 1.38611,-0.908214 1.77808,-0.871306 6.22376,0.586123 10.88693,3.569057 20.51992,2.257604 34.05813,-4.636728 7.37301,-3.7547 10.73852,-7.122942 10.73852,-10.747241 0,-4.166515 -3.77617,-6.69604 -16.86407,-11.296703 -18.93344,-6.655476 -24.08759,-9.115106 -27.6997,-13.218682 -4.37099,-4.965703 -5.64286,-13.247074 -3.07778,-20.040017 2.45741,-6.507819 10.41288,-14.558888 18.67725,-18.9016922 4.33588,-2.2784379 13.5467,-5.1898324 16.41916,-5.1898324 1.02999,0 1.6188,-0.2528044 1.4028,-0.6022881 -0.23922,-0.38707856 1.91284,-0.60228815 6.02289,-0.60228815 4.11004,0 6.26211,0.21520959 6.02288,0.60228815 -0.21057,0.3407023 0.28736,0.6022881 1.14643,0.6022881 4.31335,0 11.95011,4.6405336 13.92656,8.4625756 1.24677,2.41099 1.13257,7.662454 -0.22155,10.187342 -1.18994,2.218782 -4.11001,4.030398 -7.00227,4.344226 -1.68954,0.183325 -1.81291,0.04559 -2.25272,-2.515438 -0.55317,-3.221139 -1.97165,-5.287198 -4.75598,-6.927223 -1.74456,-1.027582 -3.107,-1.20186 -9.27251,-1.186074 -6.21257,0.0159 -7.82598,0.234923 -11.48983,1.559697 -6.20217,2.242584 -12.53,6.533044 -14.76307,10.009794 -1.64901,2.567422 -1.8181,3.259722 -1.61859,6.62694 0.38801,6.54854 3.37014,8.613527 20.65687,14.303952 20.7366,6.82605 28.64458,12.790666 28.72433,21.665399 0.0839,9.335322 -6.99191,17.29012 -22.11199,24.858864 -7.49567,3.752153 -19.64844,7.385193 -24.70397,7.385193 -0.89107,0 -1.40614,0.25973 -1.19442,0.60229 0.23879,0.38637 -1.81246,0.60229 -5.72174,0.60229 -3.90928,0 -5.96053,-0.21592 -5.72174,-0.60229 z M 99.1184,99.53187 C 97.322077,99.097313 95.320209,97.022063 94.604023,94.851995 93.608976,91.836965 93.72932,89.220619 95.116937,83.701227 97.046349,76.026763 99.12764,62.7938 101.95728,40.209869 l 2.54388,-20.303259 -1.33623,-2.750373 c -1.62722,-3.349312 -1.75162,-6.990535 -0.28223,-8.2612486 1.85442,-1.6036825 5.07232,-2.3344868 8.56466,-1.9450895 3.73232,0.416163 8.14277,-0.01325 31.91222,-3.1071863 17.80294,-2.3172975 20.63859,-2.3136537 23.36326,0.029994 1.29233,1.1116191 1.63132,1.9293276 1.63132,3.9350976 0,2.1337081 -0.33826,2.8418968 -2.15084,4.5029948 -2.10637,1.930352 -2.29907,1.979438 -9.32178,2.374684 -20.00558,1.125929 -31.02893,2.351519 -36.21438,4.026368 -1.51303,0.488691 -2.07615,1.115221 -2.55637,2.844221 -0.33874,1.21961 -0.61985,2.759528 -0.6247,3.422045 -0.005,0.662517 -0.69021,4.185902 -1.52302,7.829745 -0.83282,3.643844 -1.68207,8.18359 -1.88721,10.088327 l -0.373,3.463156 4.15124,-0.01174 c 5.01779,-0.01421 14.74434,-1.292173 22.52104,-2.959006 9.24097,-1.980685 16.64602,-1.494289 18.08136,1.187652 0.78993,1.476004 0.74571,4.395186 -0.0945,6.239265 -1.25313,2.750319 -3.28015,3.219176 -28.82804,6.668089 -13.61144,1.837509 -16.31117,2.556737 -17.2998,4.608793 -0.99942,2.074425 -3.17773,15.687166 -3.17787,19.859186 -1.8e-4,4.876118 1.02532,5.650625 6.76014,5.105602 7.31471,-0.695173 21.36294,-2.705617 30.30464,-4.336896 7.15756,-1.305797 8.84982,-1.436728 11.01922,-0.852569 4.10221,1.104615 6.20319,5.7524 4.01347,8.878655 -1.62757,2.323687 -8.16369,3.835888 -21.68204,5.016373 -6.68979,0.584177 -9.89781,1.001346 -25.59725,3.328642 -5.57492,0.826429 -12.32743,1.027989 -14.75606,0.440477 z m 236.47983,-1.385757 c -4.74937,-3.44042 -10.63472,-13.252187 -15.47733,-25.803028 -0.94049,-2.437503 -2.11762,-4.588255 -2.61585,-4.77944 -1.46751,-0.563139 -12.81859,1.575941 -24.14873,4.550763 -5.88447,1.545013 -11.98756,2.78642 -13.81716,2.810505 l -3.27711,0.04312 -3.49724,6.279902 c -4.17078,7.489374 -7.95112,13.377746 -9.47238,14.754468 -1.91047,1.728947 -4.90512,1.830661 -7.22259,0.245312 -3.15216,-2.156342 -4.46957,-4.25025 -4.00497,-6.365553 0.3835,-1.746099 6.26729,-11.889161 17.90984,-30.874752 3.14864,-5.134506 8.78129,-15.027089 12.51701,-21.983517 13.74684,-25.598509 16.63226,-30.6648307 18.75166,-32.9248626 1.91596,-2.0430818 2.49163,-2.308992 4.99879,-2.308992 5.48891,0 7.70377,2.5328805 7.13363,8.1578902 -0.19402,1.9141624 1.1696,6.6890844 6.36404,22.2846604 11.22976,33.715812 15.572,43.136899 24.9178,54.062665 1.9288,2.254864 3.5069,4.506855 3.5069,5.004424 0,0.497568 0.27103,0.737164 0.60229,0.532434 0.33126,-0.204729 0.60228,0.201815 0.60228,0.903433 0,0.701617 -0.27102,1.108161 -0.60228,0.903432 -0.33126,-0.20473 -0.60229,0.212921 -0.60229,0.928114 0,0.715193 -0.9215,2.221853 -2.04778,3.348131 -1.77725,1.77725 -2.44163,2.04778 -5.02908,2.04778 -2.36041,0 -3.50367,-0.378394 -5.48945,-1.816893 z M 293.78296,59.643948 c 7.73596,-1.33199 18.1911,-3.544014 18.94081,-4.007354 0.27943,-0.1727 0.50806,-0.720572 0.50806,-1.217489 0,-1.486881 -8.53598,-28.176008 -9.26467,-28.967475 -0.3702,-0.402094 -0.97131,-0.537609 -1.3358,-0.301144 -1.21808,0.790226 -17.93097,34.211971 -17.4761,34.947967 0.57014,0.9225 0.65685,0.917929 8.6277,-0.454505 z M 42.15012,96.978235 c -6.043085,-1.83136 -6.882536,-4.456908 -6.844625,-21.407898 0.02987,-13.353788 0.742191,-22.19339 3.567279,-44.268177 1.03557,-8.091789 1.184814,-10.719295 0.642511,-11.311736 C 38.941483,19.363569 36.555627,19.402278 26.803484,20.196648 20.200504,20.734503 12.431939,21.06631 9.540006,20.933993 5.0284064,20.727577 4.0664908,20.491016 2.764265,19.267637 1.137374,17.739252 0.683037,14.20732 1.836156,12.052695 2.91499,10.036878 6.0910793,9.5241386 20.820946,8.9878371 37.25205,8.3895964 37.134536,8.4002388 55.452513,5.852536 71.74172,3.5869991 87.844103,3.1533035 91.636585,4.8779555 c 2.696288,1.2261562 4.449012,4.5673556 3.908194,7.4501655 -0.661867,3.528041 -0.742598,3.543948 -18.311968,3.6077 -17.308947,0.06281 -21.79096,0.637172 -23.308483,2.986957 -1.327157,2.05502 -4.007349,25.442891 -5.200151,45.377532 -0.570546,9.535226 -0.572092,13.504046 -0.007,18.068643 0.940221,7.595203 0.909781,8.865356 -0.272158,11.356107 -0.784642,1.653509 -3.657557,4.034902 -4.556608,3.777027 -0.09927,-0.02849 -0.88148,-0.264206 -1.738256,-0.523852 z M 0.137104,15.040381 c 0,-0.828146 0.136703,-1.166933 0.303786,-0.75286 0.167082,0.414073 0.167082,1.091647 0,1.50572 -0.167083,0.414073 -0.303786,0.07529 -0.303786,-0.75286 z M 305.25151,0.78887089 c 0.41407,-0.16708075 1.09165,-0.16708075 1.50572,0 0.41407,0.16708075 0.0753,0.30378811 -0.75286,0.30378811 -0.82815,0 -1.16693,-0.13670736 -0.75286,-0.30378811 z"
     style="fill:#d54541" />
</svg>
